<?xml version="1.0" encoding="iso-8859-1"?>
<!-- Generator: Adobe Illustrator 19.0.0, SVG Export Plug-In . SVG Version: 6.00 Build 0)  -->
<svg version="1.1" id="Capa_1" xmlns="http://www.w3.org/2000/svg" xmlns:xlink="http://www.w3.org/1999/xlink" x="0px" y="0px"
	 viewBox="0 0 260 260" style="enable-background:new 0 0 260 260;" xml:space="preserve">
<g id="XMLID_2063_">
	<polygon id="XMLID_2076_" style="fill:#EEEEEF;" points="30,210 30,165 30,125 30,80 30,40 130,40 130,0 0,0 0,260 130,260 
		130,210 	"/>
	<polygon id="XMLID_2077_" style="fill:#DEDDE0;" points="130,0 130,40 230.001,40 230.001,80 230.001,125 230.001,165 230.001,210 
		130,210 130,260 260,260 260,0 	"/>
	<polygon id="XMLID_2078_" style="fill:#78B9EB;" points="80.001,125 30,125 30,165 230.001,165 230.001,125 180.001,125 	"/>
	<polygon id="XMLID_2079_" style="fill:#5A8BB0;" points="30,165 30,210 130,210 230.001,210 230.001,165 	"/>
	<path id="XMLID_2080_" style="fill:#FF5023;" d="M30,80h78.186c6.593-3.201,13.993-5,21.815-5c7.821,0,15.222,1.799,21.814,5
		h78.186V40H130H30V80z"/>
	<path id="XMLID_2081_" style="fill:#FF9811;" d="M108.186,80H30v45h50C80.001,105.205,91.503,88.102,108.186,80z"/>
	<path id="XMLID_2082_" style="fill:#FF9811;" d="M180.001,125h50V80h-78.186C168.499,88.102,180.001,105.205,180.001,125z"/>
	<path id="XMLID_2083_" style="fill:#FFDA44;" d="M80.001,125h100c0-19.795-11.502-36.898-28.186-45c-6.593-3.201-13.993-5-21.814-5
		c-7.822,0-15.222,1.799-21.815,5C91.503,88.102,80.001,105.205,80.001,125z"/>
</g>
<g>
</g>
<g>
</g>
<g>
</g>
<g>
</g>
<g>
</g>
<g>
</g>
<g>
</g>
<g>
</g>
<g>
</g>
<g>
</g>
<g>
</g>
<g>
</g>
<g>
</g>
<g>
</g>
<g>
</g>
</svg>
